<?xml version="1.0" encoding="UTF-8" standalone="no"?>
<!DOCTYPE svg PUBLIC "-//W3C//DTD SVG 1.1//EN"
 "http://www.w3.org/Graphics/SVG/1.1/DTD/svg11.dtd">
<!-- Generated by graphviz version 2.40.1 (20161225.0304)
 -->
<!-- Title: G Pages: 1 -->
<svg width="1344pt" height="444pt"
 viewBox="0.00 0.00 1343.84 443.65" xmlns="http://www.w3.org/2000/svg" xmlns:xlink="http://www.w3.org/1999/xlink">
<g id="graph0" class="graph" transform="scale(1 1) rotate(0) translate(4 439.6468)">
<title>G</title>
<polygon fill="#ffffff" stroke="transparent" points="-4,4 -4,-439.6468 1339.8437,-439.6468 1339.8437,4 -4,4"/>
<g id="clust1" class="cluster">
<title>cluster_G</title>
<path fill="#808080" fill-opacity="0.094118" stroke="#000000" d="M24.8437,-8C24.8437,-8 1315.8437,-8 1315.8437,-8 1321.8437,-8 1327.8437,-14 1327.8437,-20 1327.8437,-20 1327.8437,-415.6468 1327.8437,-415.6468 1327.8437,-421.6468 1321.8437,-427.6468 1315.8437,-427.6468 1315.8437,-427.6468 24.8437,-427.6468 24.8437,-427.6468 18.8437,-427.6468 12.8437,-421.6468 12.8437,-415.6468 12.8437,-415.6468 12.8437,-20 12.8437,-20 12.8437,-14 18.8437,-8 24.8437,-8"/>
</g>
<g id="clust2" class="cluster">
<title>cluster_point_mass_observed</title>
<path fill="#808080" fill-opacity="0.094118" stroke="#000000" d="M736.8437,-286.7351C736.8437,-286.7351 976.8437,-286.7351 976.8437,-286.7351 982.8437,-286.7351 988.8437,-292.7351 988.8437,-298.7351 988.8437,-298.7351 988.8437,-363.6468 988.8437,-363.6468 988.8437,-369.6468 982.8437,-375.6468 976.8437,-375.6468 976.8437,-375.6468 736.8437,-375.6468 736.8437,-375.6468 730.8437,-375.6468 724.8437,-369.6468 724.8437,-363.6468 724.8437,-363.6468 724.8437,-298.7351 724.8437,-298.7351 724.8437,-292.7351 730.8437,-286.7351 736.8437,-286.7351"/>
<text text-anchor="middle" x="856.8437" y="-360.4468" font-family="Times,serif" font-size="14.00" fill="#000000">point_mass_observed</text>
</g>
<g id="clust3" class="cluster">
<title>cluster_point_mass_observed__ObservedPointEnv</title>
<path fill="#808080" fill-opacity="0.094118" stroke="#000000" d="M44.8437,-16C44.8437,-16 1307.8437,-16 1307.8437,-16 1313.8437,-16 1319.8437,-22 1319.8437,-28 1319.8437,-28 1319.8437,-266.7351 1319.8437,-266.7351 1319.8437,-272.7351 1313.8437,-278.7351 1307.8437,-278.7351 1307.8437,-278.7351 44.8437,-278.7351 44.8437,-278.7351 38.8437,-278.7351 32.8437,-272.7351 32.8437,-266.7351 32.8437,-266.7351 32.8437,-28 32.8437,-28 32.8437,-22 38.8437,-16 44.8437,-16"/>
<text text-anchor="middle" x="676.3437" y="-263.5351" font-family="Times,serif" font-size="14.00" fill="#000000">point_mass_observed.ObservedPointEnv</text>
</g>
<!-- point_mass_observed -->
<g id="node1" class="node">
<title>point_mass_observed</title>
<ellipse fill="#ffffff" fill-opacity="0.698039" stroke="#000000" cx="856.8437" cy="-401.6468" rx="86.9809" ry="18"/>
<text text-anchor="middle" x="856.8437" y="-397.4468" font-family="Times,serif" font-size="14.00" fill="#000000">point_mass_observed</text>
</g>
<!-- point_mass_observed__ObservedPointEnv -->
<g id="node2" class="node">
<title>point_mass_observed__ObservedPointEnv</title>
<ellipse fill="#fecccc" fill-opacity="0.698039" stroke="#000000" cx="856.8437" cy="-320.1909" rx="123.532" ry="25.4118"/>
<text text-anchor="middle" x="856.8437" y="-322.9909" font-family="Times,serif" font-size="14.00" fill="#000000">ObservedPointEnv</text>
<text text-anchor="middle" x="856.8437" y="-308.9909" font-family="Times,serif" font-size="14.00" fill="#000000">(point_mass_observed.py:6)</text>
</g>
<!-- point_mass_observed&#45;&gt;point_mass_observed__ObservedPointEnv -->
<g id="edge1" class="edge">
<title>point_mass_observed&#45;&gt;point_mass_observed__ObservedPointEnv</title>
<path fill="none" stroke="#838b8b" stroke-dasharray="5,2" d="M856.8437,-383.5691C856.8437,-375.4459 856.8437,-365.56 856.8437,-356.0357"/>
<polygon fill="#838b8b" stroke="#838b8b" points="860.3438,-355.943 856.8437,-345.9431 853.3438,-355.9431 860.3438,-355.943"/>
</g>
<!-- point_mass_observed__ObservedPointEnv____init__ -->
<g id="node3" class="node">
<title>point_mass_observed__ObservedPointEnv____init__</title>
<ellipse fill="#ff9999" fill-opacity="0.698039" stroke="#000000" cx="994.8437" cy="-223.2792" rx="128.9314" ry="25.4118"/>
<text text-anchor="middle" x="994.8437" y="-226.0792" font-family="Times,serif" font-size="14.00" fill="#000000">__init__</text>
<text text-anchor="middle" x="994.8437" y="-212.0792" font-family="Times,serif" font-size="14.00" fill="#000000">(point_mass_observed.py:19)</text>
</g>
<!-- point_mass_observed__ObservedPointEnv&#45;&gt;point_mass_observed__ObservedPointEnv____init__ -->
<g id="edge6" class="edge">
<title>point_mass_observed__ObservedPointEnv&#45;&gt;point_mass_observed__ObservedPointEnv____init__</title>
<path fill="none" stroke="#838b8b" stroke-dasharray="5,2" d="M891.6669,-295.736C909.7509,-283.0364 932.0251,-267.3942 951.2438,-253.8977"/>
<polygon fill="#838b8b" stroke="#838b8b" points="953.3794,-256.6747 959.5516,-248.0634 949.3565,-250.9462 953.3794,-256.6747"/>
</g>
<!-- point_mass_observed__ObservedPointEnv___get_obs -->
<g id="node4" class="node">
<title>point_mass_observed__ObservedPointEnv___get_obs</title>
<ellipse fill="#ff9999" fill-opacity="0.698039" stroke="#000000" cx="632.8437" cy="-49.4558" rx="128.9314" ry="25.4118"/>
<text text-anchor="middle" x="632.8437" y="-52.2558" font-family="Times,serif" font-size="14.00" fill="#000000">_get_obs</text>
<text text-anchor="middle" x="632.8437" y="-38.2558" font-family="Times,serif" font-size="14.00" fill="#000000">(point_mass_observed.py:50)</text>
</g>
<!-- point_mass_observed__ObservedPointEnv&#45;&gt;point_mass_observed__ObservedPointEnv___get_obs -->
<g id="edge5" class="edge">
<title>point_mass_observed__ObservedPointEnv&#45;&gt;point_mass_observed__ObservedPointEnv___get_obs</title>
<path fill="none" stroke="#838b8b" stroke-dasharray="5,2" d="M733.261,-318.4049C508.944,-314.5525 55.5935,-303.7082 31.8437,-278.7351 -113.0412,-126.3869 280.1962,-74.1153 498.4436,-57.1195"/>
<polygon fill="#838b8b" stroke="#838b8b" points="498.9966,-60.5875 508.7012,-56.3365 498.4638,-53.6078 498.9966,-60.5875"/>
</g>
<!-- point_mass_observed__ObservedPointEnv__render -->
<g id="node5" class="node">
<title>point_mass_observed__ObservedPointEnv__render</title>
<ellipse fill="#ff9999" fill-opacity="0.698039" stroke="#000000" cx="719.8437" cy="-223.2792" rx="128.9314" ry="25.4118"/>
<text text-anchor="middle" x="719.8437" y="-226.0792" font-family="Times,serif" font-size="14.00" fill="#000000">render</text>
<text text-anchor="middle" x="719.8437" y="-212.0792" font-family="Times,serif" font-size="14.00" fill="#000000">(point_mass_observed.py:70)</text>
</g>
<!-- point_mass_observed__ObservedPointEnv&#45;&gt;point_mass_observed__ObservedPointEnv__render -->
<g id="edge4" class="edge">
<title>point_mass_observed__ObservedPointEnv&#45;&gt;point_mass_observed__ObservedPointEnv__render</title>
<path fill="none" stroke="#838b8b" stroke-dasharray="5,2" d="M822.2728,-295.736C804.3199,-283.0364 782.2071,-267.3942 763.1277,-253.8977"/>
<polygon fill="#838b8b" stroke="#838b8b" points="765.0653,-250.9811 754.8801,-248.0634 761.0227,-256.6958 765.0653,-250.9811"/>
</g>
<!-- point_mass_observed__ObservedPointEnv__reset -->
<g id="node6" class="node">
<title>point_mass_observed__ObservedPointEnv__reset</title>
<ellipse fill="#ff9999" fill-opacity="0.698039" stroke="#000000" cx="632.8437" cy="-136.3675" rx="128.9314" ry="25.4118"/>
<text text-anchor="middle" x="632.8437" y="-139.1675" font-family="Times,serif" font-size="14.00" fill="#000000">reset</text>
<text text-anchor="middle" x="632.8437" y="-125.1675" font-family="Times,serif" font-size="14.00" fill="#000000">(point_mass_observed.py:46)</text>
</g>
<!-- point_mass_observed__ObservedPointEnv&#45;&gt;point_mass_observed__ObservedPointEnv__reset -->
<g id="edge2" class="edge">
<title>point_mass_observed__ObservedPointEnv&#45;&gt;point_mass_observed__ObservedPointEnv__reset</title>
<path fill="none" stroke="#838b8b" stroke-dasharray="5,2" d="M970.5984,-310.0835C1041.7216,-302.5801 1121.8771,-291.4719 1132.8437,-278.7351 1144.5756,-265.1095 1144.9141,-211.15 1132.8437,-197.8234 1105.6348,-167.7825 809.9711,-167.5307 769.8437,-161.8234 758.2426,-160.1733 746.1269,-158.2364 734.1067,-156.1802"/>
<polygon fill="#838b8b" stroke="#838b8b" points="734.4978,-152.6957 724.0456,-154.4286 733.2971,-159.592 734.4978,-152.6957"/>
</g>
<!-- point_mass_observed__ObservedPointEnv__reset_task -->
<g id="node7" class="node">
<title>point_mass_observed__ObservedPointEnv__reset_task</title>
<ellipse fill="#ff9999" fill-opacity="0.698039" stroke="#000000" cx="907.8437" cy="-136.3675" rx="128.9314" ry="25.4118"/>
<text text-anchor="middle" x="907.8437" y="-139.1675" font-family="Times,serif" font-size="14.00" fill="#000000">reset_task</text>
<text text-anchor="middle" x="907.8437" y="-125.1675" font-family="Times,serif" font-size="14.00" fill="#000000">(point_mass_observed.py:32)</text>
</g>
<!-- point_mass_observed__ObservedPointEnv&#45;&gt;point_mass_observed__ObservedPointEnv__reset_task -->
<g id="edge9" class="edge">
<title>point_mass_observed__ObservedPointEnv&#45;&gt;point_mass_observed__ObservedPointEnv__reset_task</title>
<path fill="none" stroke="#838b8b" stroke-dasharray="5,2" d="M972.3106,-310.9131C1048.356,-303.5977 1136.0132,-292.3704 1147.8437,-278.7351 1171.4105,-251.573 1169.8935,-226.2308 1147.8437,-197.8234 1138.8346,-186.2166 1071.0665,-169.4915 1009.8327,-156.4187"/>
<polygon fill="#838b8b" stroke="#838b8b" points="1010.1859,-152.9161 999.6781,-154.2709 1008.7373,-159.7646 1010.1859,-152.9161"/>
</g>
<!-- point_mass_observed__ObservedPointEnv__seed -->
<g id="node8" class="node">
<title>point_mass_observed__ObservedPointEnv__seed</title>
<ellipse fill="#ff9999" fill-opacity="0.698039" stroke="#000000" cx="444.8437" cy="-223.2792" rx="128.9314" ry="25.4118"/>
<text text-anchor="middle" x="444.8437" y="-226.0792" font-family="Times,serif" font-size="14.00" fill="#000000">seed</text>
<text text-anchor="middle" x="444.8437" y="-212.0792" font-family="Times,serif" font-size="14.00" fill="#000000">(point_mass_observed.py:73)</text>
</g>
<!-- point_mass_observed__ObservedPointEnv&#45;&gt;point_mass_observed__ObservedPointEnv__seed -->
<g id="edge7" class="edge">
<title>point_mass_observed__ObservedPointEnv&#45;&gt;point_mass_observed__ObservedPointEnv__seed</title>
<path fill="none" stroke="#838b8b" stroke-dasharray="5,2" d="M744.545,-309.3169C694.2157,-302.9013 634.4679,-293.1364 581.8437,-278.7351 555.7341,-271.5898 527.8781,-260.916 504.1492,-250.8352"/>
<polygon fill="#838b8b" stroke="#838b8b" points="505.5001,-247.6063 494.9315,-246.8617 502.7291,-254.0345 505.5001,-247.6063"/>
</g>
<!-- point_mass_observed__ObservedPointEnv__step -->
<g id="node9" class="node">
<title>point_mass_observed__ObservedPointEnv__step</title>
<ellipse fill="#ff9999" fill-opacity="0.698039" stroke="#000000" cx="1182.8437" cy="-136.3675" rx="128.9314" ry="25.4118"/>
<text text-anchor="middle" x="1182.8437" y="-139.1675" font-family="Times,serif" font-size="14.00" fill="#000000">step</text>
<text text-anchor="middle" x="1182.8437" y="-125.1675" font-family="Times,serif" font-size="14.00" fill="#000000">(point_mass_observed.py:53)</text>
</g>
<!-- point_mass_observed__ObservedPointEnv&#45;&gt;point_mass_observed__ObservedPointEnv__step -->
<g id="edge8" class="edge">
<title>point_mass_observed__ObservedPointEnv&#45;&gt;point_mass_observed__ObservedPointEnv__step</title>
<path fill="none" stroke="#838b8b" stroke-dasharray="5,2" d="M972.6372,-311.0457C1052.6867,-303.6104 1147.1643,-292.1733 1160.8437,-278.7351 1188.6949,-251.3749 1190.76,-204.4445 1188.1308,-171.9848"/>
<polygon fill="#838b8b" stroke="#838b8b" points="1191.6102,-171.6027 1187.139,-161.9976 1184.6445,-172.2946 1191.6102,-171.6027"/>
</g>
<!-- point_mass_observed__ObservedPointEnv__viewer_setup -->
<g id="node10" class="node">
<title>point_mass_observed__ObservedPointEnv__viewer_setup</title>
<ellipse fill="#ff9999" fill-opacity="0.698039" stroke="#000000" cx="169.8437" cy="-223.2792" rx="128.9314" ry="25.4118"/>
<text text-anchor="middle" x="169.8437" y="-226.0792" font-family="Times,serif" font-size="14.00" fill="#000000">viewer_setup</text>
<text text-anchor="middle" x="169.8437" y="-212.0792" font-family="Times,serif" font-size="14.00" fill="#000000">(point_mass_observed.py:66)</text>
</g>
<!-- point_mass_observed__ObservedPointEnv&#45;&gt;point_mass_observed__ObservedPointEnv__viewer_setup -->
<g id="edge3" class="edge">
<title>point_mass_observed__ObservedPointEnv&#45;&gt;point_mass_observed__ObservedPointEnv__viewer_setup</title>
<path fill="none" stroke="#838b8b" stroke-dasharray="5,2" d="M735.232,-315.4027C598.5021,-309.246 385.3375,-297.108 306.8437,-278.7351 279.8247,-272.4108 251.1852,-261.5334 227.1159,-251.0783"/>
<polygon fill="#838b8b" stroke="#838b8b" points="228.3478,-247.796 217.7868,-246.9487 225.5143,-254.1969 228.3478,-247.796"/>
</g>
<!-- point_mass_observed__ObservedPointEnv____init__&#45;&gt;point_mass_observed__ObservedPointEnv__reset -->
<g id="edge10" class="edge">
<title>point_mass_observed__ObservedPointEnv____init__&#45;&gt;point_mass_observed__ObservedPointEnv__reset</title>
<path fill="none" stroke="#000000" d="M912.7003,-203.5576C856.7953,-190.1355 782.7402,-172.3558 724.8524,-158.4577"/>
<polygon fill="#000000" stroke="#000000" points="725.5155,-155.0175 714.9747,-156.0862 723.8813,-161.8241 725.5155,-155.0175"/>
</g>
<!-- point_mass_observed__ObservedPointEnv____init__&#45;&gt;point_mass_observed__ObservedPointEnv__reset_task -->
<g id="edge11" class="edge">
<title>point_mass_observed__ObservedPointEnv____init__&#45;&gt;point_mass_observed__ObservedPointEnv__reset_task</title>
<path fill="none" stroke="#000000" d="M969.6797,-198.1408C960.4818,-188.9522 949.9453,-178.4263 940.207,-168.698"/>
<polygon fill="#000000" stroke="#000000" points="942.4995,-166.0409 932.9512,-161.4495 937.5522,-170.9931 942.4995,-166.0409"/>
</g>
<!-- point_mass_observed__ObservedPointEnv__reset&#45;&gt;point_mass_observed__ObservedPointEnv___get_obs -->
<g id="edge12" class="edge">
<title>point_mass_observed__ObservedPointEnv__reset&#45;&gt;point_mass_observed__ObservedPointEnv___get_obs</title>
<path fill="none" stroke="#000000" d="M632.8437,-110.7612C632.8437,-102.7873 632.8437,-93.8428 632.8437,-85.303"/>
<polygon fill="#000000" stroke="#000000" points="636.3438,-85.1794 632.8437,-75.1795 629.3438,-85.1795 636.3438,-85.1794"/>
</g>
<!-- point_mass_observed__ObservedPointEnv__step&#45;&gt;point_mass_observed__ObservedPointEnv___get_obs -->
<g id="edge13" class="edge">
<title>point_mass_observed__ObservedPointEnv__step&#45;&gt;point_mass_observed__ObservedPointEnv___get_obs</title>
<path fill="none" stroke="#000000" d="M1090.0687,-118.6619C1075.2911,-115.9764 1060.16,-113.3061 1045.8437,-110.9117 945.5346,-94.1349 831.13,-77.2889 748.2065,-65.4883"/>
<polygon fill="#000000" stroke="#000000" points="748.6459,-62.0156 738.2531,-64.0745 747.6615,-68.9461 748.6459,-62.0156"/>
</g>
</g>
</svg>
