<?xml version="1.0" encoding="UTF-8" standalone="no"?>
<!DOCTYPE svg PUBLIC "-//W3C//DTD SVG 1.1//EN"
 "http://www.w3.org/Graphics/SVG/1.1/DTD/svg11.dtd">
<!-- Generated by graphviz version 2.40.1 (20161225.0304)
 -->
<!-- Title: G Pages: 1 -->
<svg width="1250pt" height="357pt"
 viewBox="0.00 0.00 1250.00 356.74" xmlns="http://www.w3.org/2000/svg" xmlns:xlink="http://www.w3.org/1999/xlink">
<g id="graph0" class="graph" transform="scale(1 1) rotate(0) translate(4 352.7351)">
<title>G</title>
<polygon fill="#ffffff" stroke="transparent" points="-4,4 -4,-352.7351 1246,-352.7351 1246,4 -4,4"/>
<g id="clust1" class="cluster">
<title>cluster_G</title>
<path fill="#808080" fill-opacity="0.094118" stroke="#000000" d="M20,-8C20,-8 1222,-8 1222,-8 1228,-8 1234,-14 1234,-20 1234,-20 1234,-328.7351 1234,-328.7351 1234,-334.7351 1228,-340.7351 1222,-340.7351 1222,-340.7351 20,-340.7351 20,-340.7351 14,-340.7351 8,-334.7351 8,-328.7351 8,-328.7351 8,-20 8,-20 8,-14 14,-8 20,-8"/>
</g>
<g id="clust2" class="cluster">
<title>cluster_model_based_rl</title>
<path fill="#808080" fill-opacity="0.094118" stroke="#000000" d="M743,-199.8234C743,-199.8234 947,-199.8234 947,-199.8234 953,-199.8234 959,-205.8234 959,-211.8234 959,-211.8234 959,-276.7351 959,-276.7351 959,-282.7351 953,-288.7351 947,-288.7351 947,-288.7351 743,-288.7351 743,-288.7351 737,-288.7351 731,-282.7351 731,-276.7351 731,-276.7351 731,-211.8234 731,-211.8234 731,-205.8234 737,-199.8234 743,-199.8234"/>
<text text-anchor="middle" x="845" y="-273.5351" font-family="Times,serif" font-size="14.00" fill="#000000">model_based_rl</text>
</g>
<g id="clust3" class="cluster">
<title>cluster_model_based_rl__ModelBasedRL</title>
<path fill="#808080" fill-opacity="0.094118" stroke="#000000" d="M28,-16C28,-16 1182,-16 1182,-16 1188,-16 1194,-22 1194,-28 1194,-28 1194,-179.8234 1194,-179.8234 1194,-185.8234 1188,-191.8234 1182,-191.8234 1182,-191.8234 28,-191.8234 28,-191.8234 22,-191.8234 16,-185.8234 16,-179.8234 16,-179.8234 16,-28 16,-28 16,-22 22,-16 28,-16"/>
<text text-anchor="middle" x="605" y="-176.6234" font-family="Times,serif" font-size="14.00" fill="#000000">model_based_rl.ModelBasedRL</text>
</g>
<!-- model_based_rl -->
<g id="node1" class="node">
<title>model_based_rl</title>
<ellipse fill="#ffffff" fill-opacity="0.698039" stroke="#000000" cx="845" cy="-314.7351" rx="66.6839" ry="18"/>
<text text-anchor="middle" x="845" y="-310.5351" font-family="Times,serif" font-size="14.00" fill="#000000">model_based_rl</text>
</g>
<!-- model_based_rl__ModelBasedRL -->
<g id="node2" class="node">
<title>model_based_rl__ModelBasedRL</title>
<ellipse fill="#fecccc" fill-opacity="0.698039" stroke="#000000" cx="845" cy="-233.2792" rx="106.3229" ry="25.4118"/>
<text text-anchor="middle" x="845" y="-236.0792" font-family="Times,serif" font-size="14.00" fill="#000000">ModelBasedRL</text>
<text text-anchor="middle" x="845" y="-222.0792" font-family="Times,serif" font-size="14.00" fill="#000000">(model_based_rl.py:12)</text>
</g>
<!-- model_based_rl&#45;&gt;model_based_rl__ModelBasedRL -->
<g id="edge1" class="edge">
<title>model_based_rl&#45;&gt;model_based_rl__ModelBasedRL</title>
<path fill="none" stroke="#838b8b" stroke-dasharray="5,2" d="M845,-296.6574C845,-288.5342 845,-278.6483 845,-269.124"/>
<polygon fill="#838b8b" stroke="#838b8b" points="848.5001,-269.0314 845,-259.0314 841.5001,-269.0314 848.5001,-269.0314"/>
</g>
<!-- model_based_rl__ModelBasedRL____init__ -->
<g id="node3" class="node">
<title>model_based_rl__ModelBasedRL____init__</title>
<ellipse fill="#ff9999" fill-opacity="0.698039" stroke="#000000" cx="130" cy="-136.3675" rx="106.3229" ry="25.4118"/>
<text text-anchor="middle" x="130" y="-139.1675" font-family="Times,serif" font-size="14.00" fill="#000000">__init__</text>
<text text-anchor="middle" x="130" y="-125.1675" font-family="Times,serif" font-size="14.00" fill="#000000">(model_based_rl.py:14)</text>
</g>
<!-- model_based_rl__ModelBasedRL&#45;&gt;model_based_rl__ModelBasedRL____init__ -->
<g id="edge4" class="edge">
<title>model_based_rl__ModelBasedRL&#45;&gt;model_based_rl__ModelBasedRL____init__</title>
<path fill="none" stroke="#838b8b" stroke-dasharray="5,2" d="M739.3254,-230.7837C592.6837,-226.4978 335.3308,-215.7716 245,-191.8234 222.147,-185.7646 198.3734,-175.1275 178.4136,-164.7789"/>
<polygon fill="#838b8b" stroke="#838b8b" points="180.0021,-161.6596 169.5284,-160.062 176.7198,-167.8423 180.0021,-161.6596"/>
</g>
<!-- model_based_rl__ModelBasedRL___gather_rollouts -->
<g id="node4" class="node">
<title>model_based_rl__ModelBasedRL___gather_rollouts</title>
<ellipse fill="#ff9999" fill-opacity="0.698039" stroke="#000000" cx="370" cy="-49.4558" rx="106.3229" ry="25.4118"/>
<text text-anchor="middle" x="370" y="-52.2558" font-family="Times,serif" font-size="14.00" fill="#000000">_gather_rollouts</text>
<text text-anchor="middle" x="370" y="-38.2558" font-family="Times,serif" font-size="14.00" fill="#000000">(model_based_rl.py:47)</text>
</g>
<!-- model_based_rl__ModelBasedRL&#45;&gt;model_based_rl__ModelBasedRL___gather_rollouts -->
<g id="edge3" class="edge">
<title>model_based_rl__ModelBasedRL&#45;&gt;model_based_rl__ModelBasedRL___gather_rollouts</title>
<path fill="none" stroke="#838b8b" stroke-dasharray="5,2" d="M948.8837,-227.8811C1046.0884,-221.7393 1178.7429,-210.1197 1195,-191.8234 1206.9429,-178.3824 1207.3856,-123.9459 1195,-110.9117 1140.9705,-54.0529 567.7733,-85.0816 490,-74.9117 478.812,-73.4487 467.1152,-71.501 455.5994,-69.3318"/>
<polygon fill="#838b8b" stroke="#838b8b" points="456.0278,-65.8496 445.5434,-67.3752 454.6908,-72.7207 456.0278,-65.8496"/>
</g>
<!-- model_based_rl__ModelBasedRL___log -->
<g id="node5" class="node">
<title>model_based_rl__ModelBasedRL___log</title>
<ellipse fill="#ff9999" fill-opacity="0.698039" stroke="#000000" cx="605" cy="-49.4558" rx="106.3229" ry="25.4118"/>
<text text-anchor="middle" x="605" y="-52.2558" font-family="Times,serif" font-size="14.00" fill="#000000">_log</text>
<text text-anchor="middle" x="605" y="-38.2558" font-family="Times,serif" font-size="14.00" fill="#000000">(model_based_rl.py:95)</text>
</g>
<!-- model_based_rl__ModelBasedRL&#45;&gt;model_based_rl__ModelBasedRL___log -->
<g id="edge7" class="edge">
<title>model_based_rl__ModelBasedRL&#45;&gt;model_based_rl__ModelBasedRL___log</title>
<path fill="none" stroke="#838b8b" stroke-dasharray="5,2" d="M949.5373,-228.4089C1051.2021,-222.5736 1192.7975,-211.0903 1210,-191.8234 1233.9503,-164.9988 1234.109,-137.5937 1210,-110.9117 1177.8921,-75.3771 887.3557,-59.3412 720.8659,-53.015"/>
<polygon fill="#838b8b" stroke="#838b8b" points="720.6988,-49.5064 710.575,-52.6304 720.4373,-56.5016 720.6988,-49.5064"/>
</g>
<!-- model_based_rl__ModelBasedRL___train_policy -->
<g id="node6" class="node">
<title>model_based_rl__ModelBasedRL___train_policy</title>
<ellipse fill="#ff9999" fill-opacity="0.698039" stroke="#000000" cx="1080" cy="-136.3675" rx="106.3229" ry="25.4118"/>
<text text-anchor="middle" x="1080" y="-139.1675" font-family="Times,serif" font-size="14.00" fill="#000000">_train_policy</text>
<text text-anchor="middle" x="1080" y="-125.1675" font-family="Times,serif" font-size="14.00" fill="#000000">(model_based_rl.py:73)</text>
</g>
<!-- model_based_rl__ModelBasedRL&#45;&gt;model_based_rl__ModelBasedRL___train_policy -->
<g id="edge6" class="edge">
<title>model_based_rl__ModelBasedRL&#45;&gt;model_based_rl__ModelBasedRL___train_policy</title>
<path fill="none" stroke="#838b8b" stroke-dasharray="5,2" d="M908.7296,-212.8085C927.0587,-206.5057 946.9653,-199.2572 965,-191.8234 985.2526,-183.4753 1007.007,-173.308 1026.0854,-163.9702"/>
<polygon fill="#838b8b" stroke="#838b8b" points="1027.7986,-167.0278 1035.2179,-159.4645 1024.7014,-160.7503 1027.7986,-167.0278"/>
</g>
<!-- model_based_rl__ModelBasedRL__run_q1 -->
<g id="node7" class="node">
<title>model_based_rl__ModelBasedRL__run_q1</title>
<ellipse fill="#ff9999" fill-opacity="0.698039" stroke="#000000" cx="845" cy="-136.3675" rx="111.2222" ry="25.4118"/>
<text text-anchor="middle" x="845" y="-139.1675" font-family="Times,serif" font-size="14.00" fill="#000000">run_q1</text>
<text text-anchor="middle" x="845" y="-125.1675" font-family="Times,serif" font-size="14.00" fill="#000000">(model_based_rl.py:105)</text>
</g>
<!-- model_based_rl__ModelBasedRL&#45;&gt;model_based_rl__ModelBasedRL__run_q1 -->
<g id="edge5" class="edge">
<title>model_based_rl__ModelBasedRL&#45;&gt;model_based_rl__ModelBasedRL__run_q1</title>
<path fill="none" stroke="#838b8b" stroke-dasharray="5,2" d="M845,-207.8168C845,-196.8864 845,-183.9238 845,-172.0603"/>
<polygon fill="#838b8b" stroke="#838b8b" points="848.5001,-171.9963 845,-161.9964 841.5001,-171.9964 848.5001,-171.9963"/>
</g>
<!-- model_based_rl__ModelBasedRL__run_q2 -->
<g id="node8" class="node">
<title>model_based_rl__ModelBasedRL__run_q2</title>
<ellipse fill="#ff9999" fill-opacity="0.698039" stroke="#000000" cx="365" cy="-136.3675" rx="111.2222" ry="25.4118"/>
<text text-anchor="middle" x="365" y="-139.1675" font-family="Times,serif" font-size="14.00" fill="#000000">run_q2</text>
<text text-anchor="middle" x="365" y="-125.1675" font-family="Times,serif" font-size="14.00" fill="#000000">(model_based_rl.py:148)</text>
</g>
<!-- model_based_rl__ModelBasedRL&#45;&gt;model_based_rl__ModelBasedRL__run_q2 -->
<g id="edge8" class="edge">
<title>model_based_rl__ModelBasedRL&#45;&gt;model_based_rl__ModelBasedRL__run_q2</title>
<path fill="none" stroke="#838b8b" stroke-dasharray="5,2" d="M743.889,-225.243C654.8016,-217.5026 532.0932,-205.0483 485,-191.8234 461.6144,-185.2561 437.0545,-174.6403 416.2885,-164.4461"/>
<polygon fill="#838b8b" stroke="#838b8b" points="417.8436,-161.3105 407.3348,-159.9626 414.7093,-167.5697 417.8436,-161.3105"/>
</g>
<!-- model_based_rl__ModelBasedRL__run_q3 -->
<g id="node9" class="node">
<title>model_based_rl__ModelBasedRL__run_q3</title>
<ellipse fill="#ff9999" fill-opacity="0.698039" stroke="#000000" cx="605" cy="-136.3675" rx="111.2222" ry="25.4118"/>
<text text-anchor="middle" x="605" y="-139.1675" font-family="Times,serif" font-size="14.00" fill="#000000">run_q3</text>
<text text-anchor="middle" x="605" y="-125.1675" font-family="Times,serif" font-size="14.00" fill="#000000">(model_based_rl.py:168)</text>
</g>
<!-- model_based_rl__ModelBasedRL&#45;&gt;model_based_rl__ModelBasedRL__run_q3 -->
<g id="edge2" class="edge">
<title>model_based_rl__ModelBasedRL&#45;&gt;model_based_rl__ModelBasedRL__run_q3</title>
<path fill="none" stroke="#838b8b" stroke-dasharray="5,2" d="M781.6585,-212.7247C763.2457,-206.3929 743.1974,-199.15 725,-191.8234 703.9561,-183.3507 681.2727,-173.1532 661.3532,-163.826"/>
<polygon fill="#838b8b" stroke="#838b8b" points="662.6524,-160.5691 652.1147,-159.4704 659.6672,-166.9007 662.6524,-160.5691"/>
</g>
<!-- model_based_rl__ModelBasedRL____init__&#45;&gt;model_based_rl__ModelBasedRL___gather_rollouts -->
<g id="edge9" class="edge">
<title>model_based_rl__ModelBasedRL____init__&#45;&gt;model_based_rl__ModelBasedRL___gather_rollouts</title>
<path fill="none" stroke="#000000" d="M188.7106,-115.1065C222.7056,-102.7959 265.671,-87.2367 301.2409,-74.3557"/>
<polygon fill="#000000" stroke="#000000" points="302.853,-77.4944 311.0637,-70.7986 300.4695,-70.9127 302.853,-77.4944"/>
</g>
<!-- model_based_rl__ModelBasedRL__run_q2&#45;&gt;model_based_rl__ModelBasedRL___gather_rollouts -->
<g id="edge10" class="edge">
<title>model_based_rl__ModelBasedRL__run_q2&#45;&gt;model_based_rl__ModelBasedRL___gather_rollouts</title>
<path fill="none" stroke="#000000" d="M366.4731,-110.7612C366.9319,-102.7873 367.4464,-93.8428 367.9377,-85.303"/>
<polygon fill="#000000" stroke="#000000" points="371.4399,-85.364 368.5201,-75.1795 364.4515,-84.9619 371.4399,-85.364"/>
</g>
<!-- model_based_rl__ModelBasedRL__run_q2&#45;&gt;model_based_rl__ModelBasedRL___log -->
<g id="edge11" class="edge">
<title>model_based_rl__ModelBasedRL__run_q2&#45;&gt;model_based_rl__ModelBasedRL___log</title>
<path fill="none" stroke="#000000" d="M424.6342,-114.7721C458.5154,-102.5026 501.0779,-87.0894 536.3472,-74.3172"/>
<polygon fill="#000000" stroke="#000000" points="537.8776,-77.4855 546.0883,-70.7896 535.4941,-70.9038 537.8776,-77.4855"/>
</g>
<!-- model_based_rl__ModelBasedRL__run_q3&#45;&gt;model_based_rl__ModelBasedRL___gather_rollouts -->
<g id="edge12" class="edge">
<title>model_based_rl__ModelBasedRL__run_q3&#45;&gt;model_based_rl__ModelBasedRL___gather_rollouts</title>
<path fill="none" stroke="#000000" d="M546.3058,-114.6602C513.2513,-102.4355 471.8313,-87.1168 437.4454,-74.3997"/>
<polygon fill="#000000" stroke="#000000" points="438.5394,-71.0726 427.9462,-70.8865 436.1112,-77.638 438.5394,-71.0726"/>
</g>
<!-- model_based_rl__ModelBasedRL__run_q3&#45;&gt;model_based_rl__ModelBasedRL___log -->
<g id="edge13" class="edge">
<title>model_based_rl__ModelBasedRL__run_q3&#45;&gt;model_based_rl__ModelBasedRL___log</title>
<path fill="none" stroke="#000000" d="M605,-110.7612C605,-102.7873 605,-93.8428 605,-85.303"/>
<polygon fill="#000000" stroke="#000000" points="608.5001,-85.1794 605,-75.1795 601.5001,-85.1795 608.5001,-85.1794"/>
</g>
</g>
</svg>
