<?xml version="1.0" encoding="UTF-8" standalone="no"?>
<!DOCTYPE svg PUBLIC "-//W3C//DTD SVG 1.1//EN"
 "http://www.w3.org/Graphics/SVG/1.1/DTD/svg11.dtd">
<!-- Generated by graphviz version 2.40.1 (20161225.0304)
 -->
<!-- Title: G Pages: 1 -->
<svg width="2198pt" height="357pt"
 viewBox="0.00 0.00 2198.00 356.74" xmlns="http://www.w3.org/2000/svg" xmlns:xlink="http://www.w3.org/1999/xlink">
<g id="graph0" class="graph" transform="scale(1 1) rotate(0) translate(4 352.7351)">
<title>G</title>
<polygon fill="#ffffff" stroke="transparent" points="-4,4 -4,-352.7351 2194,-352.7351 2194,4 -4,4"/>
<g id="clust1" class="cluster">
<title>cluster_G</title>
<path fill="#808080" fill-opacity="0.094118" stroke="#000000" d="M20,-8C20,-8 2170,-8 2170,-8 2176,-8 2182,-14 2182,-20 2182,-20 2182,-328.7351 2182,-328.7351 2182,-334.7351 2176,-340.7351 2170,-340.7351 2170,-340.7351 20,-340.7351 20,-340.7351 14,-340.7351 8,-334.7351 8,-328.7351 8,-328.7351 8,-20 8,-20 8,-14 14,-8 20,-8"/>
</g>
<g id="clust2" class="cluster">
<title>cluster_model_based_policy</title>
<path fill="#808080" fill-opacity="0.094118" stroke="#000000" d="M1127,-199.8234C1127,-199.8234 1357,-199.8234 1357,-199.8234 1363,-199.8234 1369,-205.8234 1369,-211.8234 1369,-211.8234 1369,-276.7351 1369,-276.7351 1369,-282.7351 1363,-288.7351 1357,-288.7351 1357,-288.7351 1127,-288.7351 1127,-288.7351 1121,-288.7351 1115,-282.7351 1115,-276.7351 1115,-276.7351 1115,-211.8234 1115,-211.8234 1115,-205.8234 1121,-199.8234 1127,-199.8234"/>
<text text-anchor="middle" x="1242" y="-273.5351" font-family="Times,serif" font-size="14.00" fill="#000000">model_based_policy</text>
</g>
<g id="clust3" class="cluster">
<title>cluster_model_based_policy__ModelBasedPolicy</title>
<path fill="#808080" fill-opacity="0.094118" stroke="#000000" d="M28,-16C28,-16 2160,-16 2160,-16 2166,-16 2172,-22 2172,-28 2172,-28 2172,-179.8234 2172,-179.8234 2172,-185.8234 2166,-191.8234 2160,-191.8234 2160,-191.8234 28,-191.8234 28,-191.8234 22,-191.8234 16,-185.8234 16,-179.8234 16,-179.8234 16,-28 16,-28 16,-22 22,-16 28,-16"/>
<text text-anchor="middle" x="1094" y="-176.6234" font-family="Times,serif" font-size="14.00" fill="#000000">model_based_policy.ModelBasedPolicy</text>
</g>
<!-- model_based_policy -->
<g id="node1" class="node">
<title>model_based_policy</title>
<ellipse fill="#ffffff" fill-opacity="0.698039" stroke="#000000" cx="1242" cy="-314.7351" rx="83.0891" ry="18"/>
<text text-anchor="middle" x="1242" y="-310.5351" font-family="Times,serif" font-size="14.00" fill="#000000">model_based_policy</text>
</g>
<!-- model_based_policy__ModelBasedPolicy -->
<g id="node2" class="node">
<title>model_based_policy__ModelBasedPolicy</title>
<ellipse fill="#fecccc" fill-opacity="0.698039" stroke="#000000" cx="1242" cy="-233.2792" rx="119.0316" ry="25.4118"/>
<text text-anchor="middle" x="1242" y="-236.0792" font-family="Times,serif" font-size="14.00" fill="#000000">ModelBasedPolicy</text>
<text text-anchor="middle" x="1242" y="-222.0792" font-family="Times,serif" font-size="14.00" fill="#000000">(model_based_policy.py:7)</text>
</g>
<!-- model_based_policy&#45;&gt;model_based_policy__ModelBasedPolicy -->
<g id="edge1" class="edge">
<title>model_based_policy&#45;&gt;model_based_policy__ModelBasedPolicy</title>
<path fill="none" stroke="#838b8b" stroke-dasharray="5,2" d="M1242,-296.6574C1242,-288.5342 1242,-278.6483 1242,-269.124"/>
<polygon fill="#838b8b" stroke="#838b8b" points="1245.5001,-269.0314 1242,-259.0314 1238.5001,-269.0314 1245.5001,-269.0314"/>
</g>
<!-- model_based_policy__ModelBasedPolicy____init__ -->
<g id="node3" class="node">
<title>model_based_policy__ModelBasedPolicy____init__</title>
<ellipse fill="#ff9999" fill-opacity="0.698039" stroke="#000000" cx="2035" cy="-136.3675" rx="119.0316" ry="25.4118"/>
<text text-anchor="middle" x="2035" y="-139.1675" font-family="Times,serif" font-size="14.00" fill="#000000">__init__</text>
<text text-anchor="middle" x="2035" y="-125.1675" font-family="Times,serif" font-size="14.00" fill="#000000">(model_based_policy.py:9)</text>
</g>
<!-- model_based_policy__ModelBasedPolicy&#45;&gt;model_based_policy__ModelBasedPolicy____init__ -->
<g id="edge4" class="edge">
<title>model_based_policy__ModelBasedPolicy&#45;&gt;model_based_policy__ModelBasedPolicy____init__</title>
<path fill="none" stroke="#838b8b" stroke-dasharray="5,2" d="M1361.0193,-230.7882C1523.7023,-226.5365 1806.751,-215.8834 1907,-191.8234 1932.3451,-185.7405 1959.0028,-174.9707 1981.3899,-164.5299"/>
<polygon fill="#838b8b" stroke="#838b8b" points="1983.185,-167.5517 1990.7066,-160.0901 1980.1736,-161.2325 1983.185,-167.5517"/>
</g>
<!-- model_based_policy__ModelBasedPolicy___dynamics_func -->
<g id="node4" class="node">
<title>model_based_policy__ModelBasedPolicy___dynamics_func</title>
<ellipse fill="#ff9999" fill-opacity="0.698039" stroke="#000000" cx="1774" cy="-136.3675" rx="124.431" ry="25.4118"/>
<text text-anchor="middle" x="1774" y="-139.1675" font-family="Times,serif" font-size="14.00" fill="#000000">_dynamics_func</text>
<text text-anchor="middle" x="1774" y="-125.1675" font-family="Times,serif" font-size="14.00" fill="#000000">(model_based_policy.py:48)</text>
</g>
<!-- model_based_policy__ModelBasedPolicy&#45;&gt;model_based_policy__ModelBasedPolicy___dynamics_func -->
<g id="edge9" class="edge">
<title>model_based_policy__ModelBasedPolicy&#45;&gt;model_based_policy__ModelBasedPolicy___dynamics_func</title>
<path fill="none" stroke="#838b8b" stroke-dasharray="5,2" d="M1355.3656,-225.1932C1453.8934,-217.4879 1588.7789,-205.1179 1641,-191.8234 1666.8892,-185.2325 1694.3222,-174.4907 1717.5062,-164.2078"/>
<polygon fill="#838b8b" stroke="#838b8b" points="1719.159,-167.3018 1726.8318,-159.9958 1716.2775,-160.9224 1719.159,-167.3018"/>
</g>
<!-- model_based_policy__ModelBasedPolicy___setup_action_selection -->
<g id="node5" class="node">
<title>model_based_policy__ModelBasedPolicy___setup_action_selection</title>
<ellipse fill="#ff9999" fill-opacity="0.698039" stroke="#000000" cx="1508" cy="-136.3675" rx="124.431" ry="25.4118"/>
<text text-anchor="middle" x="1508" y="-139.1675" font-family="Times,serif" font-size="14.00" fill="#000000">_setup_action_selection</text>
<text text-anchor="middle" x="1508" y="-125.1675" font-family="Times,serif" font-size="14.00" fill="#000000">(model_based_policy.py:96)</text>
</g>
<!-- model_based_policy__ModelBasedPolicy&#45;&gt;model_based_policy__ModelBasedPolicy___setup_action_selection -->
<g id="edge5" class="edge">
<title>model_based_policy__ModelBasedPolicy&#45;&gt;model_based_policy__ModelBasedPolicy___setup_action_selection</title>
<path fill="none" stroke="#838b8b" stroke-dasharray="5,2" d="M1312.4684,-212.6512C1332.7799,-206.3454 1354.8829,-199.1348 1375,-191.8234 1398.5565,-183.262 1424.0453,-172.9081 1446.3461,-163.476"/>
<polygon fill="#838b8b" stroke="#838b8b" points="1447.8626,-166.6344 1455.6934,-159.498 1445.1214,-160.1934 1447.8626,-166.6344"/>
</g>
<!-- model_based_policy__ModelBasedPolicy___setup_graphX -->
<g id="node6" class="node">
<title>model_based_policy__ModelBasedPolicy___setup_graphX</title>
<ellipse fill="#ff9999" fill-opacity="0.698039" stroke="#000000" cx="2035" cy="-49.4558" rx="129.3303" ry="25.4118"/>
<text text-anchor="middle" x="2035" y="-52.2558" font-family="Times,serif" font-size="14.00" fill="#000000">_setup_graph</text>
<text text-anchor="middle" x="2035" y="-38.2558" font-family="Times,serif" font-size="14.00" fill="#000000">(model_based_policy.py:129)</text>
</g>
<!-- model_based_policy__ModelBasedPolicy&#45;&gt;model_based_policy__ModelBasedPolicy___setup_graphX -->
<g id="edge3" class="edge">
<title>model_based_policy__ModelBasedPolicy&#45;&gt;model_based_policy__ModelBasedPolicy___setup_graphX</title>
<path fill="none" stroke="#838b8b" stroke-dasharray="5,2" d="M1361.4076,-232.2333C1604.3758,-229.5163 2135.7465,-220.3312 2163,-191.8234 2187.8498,-165.8299 2182.1502,-141.3492 2163,-110.9117 2153.0868,-95.1556 2137.8842,-83.3474 2121.3752,-74.5291"/>
<polygon fill="#838b8b" stroke="#838b8b" points="2122.609,-71.2344 2112.0945,-69.9316 2119.5016,-77.507 2122.609,-71.2344"/>
</g>
<!-- model_based_policy__ModelBasedPolicy___setup_placeholders -->
<g id="node7" class="node">
<title>model_based_policy__ModelBasedPolicy___setup_placeholders</title>
<ellipse fill="#ff9999" fill-opacity="0.698039" stroke="#000000" cx="1242" cy="-136.3675" rx="124.431" ry="25.4118"/>
<text text-anchor="middle" x="1242" y="-139.1675" font-family="Times,serif" font-size="14.00" fill="#000000">_setup_placeholders</text>
<text text-anchor="middle" x="1242" y="-125.1675" font-family="Times,serif" font-size="14.00" fill="#000000">(model_based_policy.py:29)</text>
</g>
<!-- model_based_policy__ModelBasedPolicy&#45;&gt;model_based_policy__ModelBasedPolicy___setup_placeholders -->
<g id="edge7" class="edge">
<title>model_based_policy__ModelBasedPolicy&#45;&gt;model_based_policy__ModelBasedPolicy___setup_placeholders</title>
<path fill="none" stroke="#838b8b" stroke-dasharray="5,2" d="M1242,-207.8168C1242,-196.8864 1242,-183.9238 1242,-172.0603"/>
<polygon fill="#838b8b" stroke="#838b8b" points="1245.5001,-171.9963 1242,-161.9964 1238.5001,-171.9964 1245.5001,-171.9963"/>
</g>
<!-- model_based_policy__ModelBasedPolicy___setup_training -->
<g id="node8" class="node">
<title>model_based_policy__ModelBasedPolicy___setup_training</title>
<ellipse fill="#ff9999" fill-opacity="0.698039" stroke="#000000" cx="976" cy="-136.3675" rx="124.431" ry="25.4118"/>
<text text-anchor="middle" x="976" y="-139.1675" font-family="Times,serif" font-size="14.00" fill="#000000">_setup_training</text>
<text text-anchor="middle" x="976" y="-125.1675" font-family="Times,serif" font-size="14.00" fill="#000000">(model_based_policy.py:72)</text>
</g>
<!-- model_based_policy__ModelBasedPolicy&#45;&gt;model_based_policy__ModelBasedPolicy___setup_training -->
<g id="edge6" class="edge">
<title>model_based_policy__ModelBasedPolicy&#45;&gt;model_based_policy__ModelBasedPolicy___setup_training</title>
<path fill="none" stroke="#838b8b" stroke-dasharray="5,2" d="M1171.5316,-212.6512C1151.2201,-206.3454 1129.1171,-199.1348 1109,-191.8234 1085.4435,-183.262 1059.9547,-172.9081 1037.6539,-163.476"/>
<polygon fill="#838b8b" stroke="#838b8b" points="1038.8786,-160.1934 1028.3066,-159.498 1036.1374,-166.6344 1038.8786,-160.1934"/>
</g>
<!-- model_based_policy__ModelBasedPolicy__get_action -->
<g id="node9" class="node">
<title>model_based_policy__ModelBasedPolicy__get_action</title>
<ellipse fill="#ff9999" fill-opacity="0.698039" stroke="#000000" cx="705" cy="-136.3675" rx="129.3303" ry="25.4118"/>
<text text-anchor="middle" x="705" y="-139.1675" font-family="Times,serif" font-size="14.00" fill="#000000">get_action</text>
<text text-anchor="middle" x="705" y="-125.1675" font-family="Times,serif" font-size="14.00" fill="#000000">(model_based_policy.py:182)</text>
</g>
<!-- model_based_policy__ModelBasedPolicy&#45;&gt;model_based_policy__ModelBasedPolicy__get_action -->
<g id="edge2" class="edge">
<title>model_based_policy__ModelBasedPolicy&#45;&gt;model_based_policy__ModelBasedPolicy__get_action</title>
<path fill="none" stroke="#838b8b" stroke-dasharray="5,2" d="M1128.6743,-225.0346C1030.1738,-217.2205 895.306,-204.7797 843,-191.8234 816.117,-185.1644 787.5351,-174.35 763.3973,-164.0315"/>
<polygon fill="#838b8b" stroke="#838b8b" points="764.6004,-160.7381 754.0342,-159.9594 761.8086,-167.1573 764.6004,-160.7381"/>
</g>
<!-- model_based_policy__ModelBasedPolicy__predict -->
<g id="node10" class="node">
<title>model_based_policy__ModelBasedPolicy__predict</title>
<ellipse fill="#ff9999" fill-opacity="0.698039" stroke="#000000" cx="429" cy="-136.3675" rx="129.3303" ry="25.4118"/>
<text text-anchor="middle" x="429" y="-139.1675" font-family="Times,serif" font-size="14.00" fill="#000000">predict</text>
<text text-anchor="middle" x="429" y="-125.1675" font-family="Times,serif" font-size="14.00" fill="#000000">(model_based_policy.py:162)</text>
</g>
<!-- model_based_policy__ModelBasedPolicy&#45;&gt;model_based_policy__ModelBasedPolicy__predict -->
<g id="edge10" class="edge">
<title>model_based_policy__ModelBasedPolicy&#45;&gt;model_based_policy__ModelBasedPolicy__predict</title>
<path fill="none" stroke="#838b8b" stroke-dasharray="5,2" d="M1123.3566,-230.5557C958.6772,-225.9924 669.5081,-214.9315 567,-191.8234 539.649,-185.6577 510.6723,-174.7452 486.37,-164.222"/>
<polygon fill="#838b8b" stroke="#838b8b" points="487.5155,-160.9019 476.9539,-160.064 484.6878,-167.3053 487.5155,-160.9019"/>
</g>
<!-- model_based_policy__ModelBasedPolicy__train_step -->
<g id="node11" class="node">
<title>model_based_policy__ModelBasedPolicy__train_step</title>
<ellipse fill="#ff9999" fill-opacity="0.698039" stroke="#000000" cx="153" cy="-136.3675" rx="129.3303" ry="25.4118"/>
<text text-anchor="middle" x="153" y="-139.1675" font-family="Times,serif" font-size="14.00" fill="#000000">train_step</text>
<text text-anchor="middle" x="153" y="-125.1675" font-family="Times,serif" font-size="14.00" fill="#000000">(model_based_policy.py:149)</text>
</g>
<!-- model_based_policy__ModelBasedPolicy&#45;&gt;model_based_policy__ModelBasedPolicy__train_step -->
<g id="edge8" class="edge">
<title>model_based_policy__ModelBasedPolicy&#45;&gt;model_based_policy__ModelBasedPolicy__train_step</title>
<path fill="none" stroke="#838b8b" stroke-dasharray="5,2" d="M1123.2647,-230.3456C886.2182,-224.1614 370.2012,-208.9393 291,-191.8234 263.4839,-185.8769 234.3748,-174.9369 210.0205,-164.3353"/>
<polygon fill="#838b8b" stroke="#838b8b" points="211.1477,-161.0063 200.5881,-160.1438 208.3051,-167.4031 211.1477,-161.0063"/>
</g>
<!-- model_based_policy__ModelBasedPolicy____init__&#45;&gt;model_based_policy__ModelBasedPolicy___setup_graphX -->
<g id="edge11" class="edge">
<title>model_based_policy__ModelBasedPolicy____init__&#45;&gt;model_based_policy__ModelBasedPolicy___setup_graphX</title>
<path fill="none" stroke="#000000" d="M2035,-110.7612C2035,-102.7873 2035,-93.8428 2035,-85.303"/>
<polygon fill="#000000" stroke="#000000" points="2038.5001,-85.1794 2035,-75.1795 2031.5001,-85.1795 2038.5001,-85.1794"/>
</g>
</g>
</svg>
